<svg width="269" height="48" viewBox="0 0 269 48" fill="none" xmlns="http://www.w3.org/2000/svg">
<path d="M23 10.6667C20.8067 10.6667 19 12.4733 19 14.6667C19 14.9213 19.0291 15.1695 19.0755 15.4114L9.5625 20.9609C8.86472 20.3705 7.9761 20 7 20C4.80665 20 3 21.8066 3 24C3 26.1933 4.80665 28 7 28C7.9761 28 8.86472 27.6295 9.5625 27.0391L19.0755 32.5859C19.0287 32.8287 19 33.0778 19 33.3333C19 35.5267 20.8067 37.3333 23 37.3333C25.1933 37.3333 27 35.5267 27 33.3333C27 31.14 25.1933 29.3333 23 29.3333C22.0233 29.3333 21.1355 29.7058 20.4375 30.2969L10.9245 24.7448C10.9709 24.5028 11 24.2546 11 24C11 23.7454 10.9709 23.4972 10.9245 23.2552L20.4375 17.7057C21.1353 18.2962 22.0239 18.6667 23 18.6667C25.1933 18.6667 27 16.86 27 14.6667C27 12.4733 25.1933 10.6667 23 10.6667ZM23 13.3333C23.7522 13.3333 24.3333 13.9145 24.3333 14.6667C24.3333 15.4188 23.7522 16 23 16C22.2478 16 21.6667 15.4188 21.6667 14.6667C21.6667 13.9145 22.2478 13.3333 23 13.3333ZM7 22.6667C7.75217 22.6667 8.33333 23.2478 8.33333 24C8.33333 24.7522 7.75217 25.3333 7 25.3333C6.24783 25.3333 5.66667 24.7522 5.66667 24C5.66667 23.2478 6.24783 22.6667 7 22.6667ZM23 32C23.7522 32 24.3333 32.5812 24.3333 33.3333C24.3333 34.0855 23.7522 34.6667 23 34.6667C22.2478 34.6667 21.6667 34.0855 21.6667 33.3333C21.6667 32.5812 22.2478 32 23 32Z" fill="#20A0C9"/>
<path d="M53.1781 31H48.5801L44.1801 19.186C44.3267 20.3447 44.4367 21.3713 44.5101 22.266C44.5981 23.146 44.6421 24.1947 44.6421 25.412V31H41.4301V15.754H45.9181L50.4281 27.59C50.1054 25.5807 49.9441 23.6887 49.9441 21.914V15.754H53.1781V31Z" fill="#CEEEF9"/>
<path d="M61.0119 18.944C62.8013 18.944 64.2019 19.494 65.2139 20.594C66.2259 21.6793 66.7319 23.2047 66.7319 25.17C66.7319 26.4167 66.4973 27.5093 66.0279 28.448C65.5733 29.372 64.9133 30.0907 64.0479 30.604C63.1973 31.1173 62.1853 31.374 61.0119 31.374C59.2373 31.374 57.8366 30.8313 56.8099 29.746C55.7979 28.646 55.2919 27.1133 55.2919 25.148C55.2919 23.9013 55.5193 22.816 55.9739 21.892C56.4433 20.9533 57.1033 20.2273 57.9539 19.714C58.8193 19.2007 59.8386 18.944 61.0119 18.944ZM61.0119 21.496C60.3079 21.496 59.7799 21.7967 59.4279 22.398C59.0759 22.9847 58.8999 23.9013 58.8999 25.148C58.8999 26.424 59.0686 27.3553 59.4059 27.942C59.7579 28.5287 60.2933 28.822 61.0119 28.822C61.7159 28.822 62.2439 28.5287 62.5959 27.942C62.9479 27.3407 63.1239 26.4167 63.1239 25.17C63.1239 23.894 62.9479 22.9627 62.5959 22.376C62.2586 21.7893 61.7306 21.496 61.0119 21.496Z" fill="#CEEEF9"/>
<path d="M75.4216 18.944C76.8149 18.944 77.8856 19.494 78.6336 20.594C79.3816 21.6793 79.7556 23.2047 79.7556 25.17C79.7556 26.3727 79.5649 27.4433 79.1836 28.382C78.8169 29.3207 78.2816 30.054 77.5776 30.582C76.8883 31.11 76.0669 31.374 75.1136 31.374C74.4829 31.374 73.9036 31.242 73.3756 30.978C72.8623 30.714 72.4223 30.3473 72.0556 29.878L71.8796 31H68.7996V14.676L72.2756 14.302V20.506C72.6276 20.022 73.0749 19.6407 73.6176 19.362C74.1749 19.0833 74.7763 18.944 75.4216 18.944ZM74.1016 28.844C75.4656 28.844 76.1476 27.6193 76.1476 25.17C76.1476 23.7767 75.9863 22.816 75.6636 22.288C75.3409 21.76 74.8716 21.496 74.2556 21.496C73.4783 21.496 72.8183 21.9507 72.2756 22.86V27.722C72.4956 28.074 72.7596 28.3527 73.0676 28.558C73.3903 28.7487 73.7349 28.844 74.1016 28.844Z" fill="#CEEEF9"/>
<path d="M86.0406 18.944C86.8766 18.944 87.6612 19.0687 88.3946 19.318C89.1279 19.5673 89.7732 19.9193 90.3306 20.374L89.0546 22.332C88.1012 21.7307 87.1406 21.43 86.1726 21.43C85.7179 21.43 85.3659 21.5107 85.1166 21.672C84.8819 21.8187 84.7646 22.0313 84.7646 22.31C84.7646 22.53 84.8159 22.7133 84.9186 22.86C85.0359 22.992 85.2632 23.1313 85.6006 23.278C85.9379 23.4247 86.4586 23.6007 87.1626 23.806C88.3799 24.158 89.2819 24.62 89.8686 25.192C90.4699 25.7493 90.7706 26.5267 90.7706 27.524C90.7706 28.316 90.5432 29.0053 90.0886 29.592C89.6339 30.164 89.0106 30.604 88.2186 30.912C87.4266 31.22 86.5466 31.374 85.5786 31.374C84.5959 31.374 83.6792 31.22 82.8286 30.912C81.9926 30.604 81.2812 30.1787 80.6946 29.636L82.3886 27.744C83.3712 28.5067 84.4052 28.888 85.4906 28.888C86.0186 28.888 86.4292 28.7927 86.7226 28.602C87.0306 28.4113 87.1846 28.14 87.1846 27.788C87.1846 27.5093 87.1259 27.2893 87.0086 27.128C86.8912 26.9667 86.6639 26.82 86.3266 26.688C85.9892 26.5413 85.4539 26.3653 84.7206 26.16C83.5619 25.8227 82.6966 25.3533 82.1246 24.752C81.5526 24.1507 81.2666 23.4027 81.2666 22.508C81.2666 21.8333 81.4572 21.232 81.8386 20.704C82.2346 20.1613 82.7919 19.736 83.5106 19.428C84.2439 19.1053 85.0872 18.944 86.0406 18.944Z" fill="#CEEEF9"/>
<path d="M99.058 22.244C99.6007 22.244 100.063 22.442 100.444 22.838C100.84 23.2193 101.038 23.6813 101.038 24.224C101.038 24.7813 100.84 25.258 100.444 25.654C100.063 26.0353 99.6007 26.226 99.058 26.226C98.5007 26.226 98.024 26.0353 97.628 25.654C97.2467 25.258 97.056 24.7813 97.056 24.224C97.056 23.6813 97.2467 23.2193 97.628 22.838C98.024 22.442 98.5007 22.244 99.058 22.244Z" fill="#CEEEF9"/>
<path d="M113.26 15.38C114.404 15.38 115.394 15.5413 116.23 15.864C117.08 16.1867 117.85 16.678 118.54 17.338L116.868 19.296C115.826 18.4453 114.712 18.02 113.524 18.02C112.893 18.02 112.394 18.152 112.028 18.416C111.661 18.6653 111.478 19.032 111.478 19.516C111.478 19.8533 111.558 20.132 111.72 20.352C111.881 20.5573 112.167 20.7553 112.578 20.946C112.988 21.1367 113.604 21.364 114.426 21.628C115.98 22.1267 117.124 22.7427 117.858 23.476C118.591 24.1947 118.958 25.2213 118.958 26.556C118.958 27.5093 118.716 28.3527 118.232 29.086C117.748 29.8047 117.051 30.3693 116.142 30.78C115.232 31.176 114.154 31.374 112.908 31.374C111.661 31.374 110.554 31.176 109.586 30.78C108.632 30.384 107.811 29.856 107.122 29.196L108.948 27.194C109.534 27.6927 110.136 28.0667 110.752 28.316C111.382 28.5653 112.064 28.69 112.798 28.69C113.546 28.69 114.132 28.5287 114.558 28.206C114.998 27.8687 115.218 27.4067 115.218 26.82C115.218 26.4387 115.137 26.1233 114.976 25.874C114.814 25.61 114.536 25.3753 114.14 25.17C113.744 24.9647 113.172 24.7447 112.424 24.51C110.737 23.9967 109.534 23.366 108.816 22.618C108.112 21.87 107.76 20.924 107.76 19.78C107.76 18.9 107.994 18.13 108.464 17.47C108.933 16.7953 109.586 16.282 110.422 15.93C111.258 15.5633 112.204 15.38 113.26 15.38Z" fill="#20A0C9"/>
<path d="M127.72 18.944C128.732 18.944 129.524 19.252 130.096 19.868C130.668 20.484 130.954 21.3493 130.954 22.464V31H127.478V23.058C127.478 22.4713 127.382 22.068 127.192 21.848C127.001 21.6133 126.73 21.496 126.378 21.496C125.674 21.496 124.999 21.9947 124.354 22.992V31H120.878V14.676L124.354 14.324V20.572C124.838 20.0293 125.351 19.626 125.894 19.362C126.436 19.0833 127.045 18.944 127.72 18.944Z" fill="#20A0C9"/>
<path d="M142.859 27.612C142.859 28.052 142.918 28.3747 143.035 28.58C143.167 28.7853 143.372 28.9393 143.651 29.042L142.925 31.308C142.206 31.2493 141.62 31.0953 141.165 30.846C140.71 30.582 140.358 30.1713 140.109 29.614C139.346 30.7873 138.173 31.374 136.589 31.374C135.43 31.374 134.506 31.0367 133.817 30.362C133.128 29.6873 132.783 28.8073 132.783 27.722C132.783 26.446 133.252 25.4707 134.191 24.796C135.13 24.1213 136.486 23.784 138.261 23.784H139.449V23.278C139.449 22.5887 139.302 22.1193 139.009 21.87C138.716 21.606 138.202 21.474 137.469 21.474C137.088 21.474 136.626 21.5327 136.083 21.65C135.54 21.7527 134.983 21.8993 134.411 22.09L133.619 19.802C134.352 19.5233 135.1 19.3107 135.863 19.164C136.64 19.0173 137.359 18.944 138.019 18.944C139.691 18.944 140.916 19.2887 141.693 19.978C142.47 20.6673 142.859 21.7013 142.859 23.08V27.612ZM137.601 28.888C138.393 28.888 139.009 28.514 139.449 27.766V25.698H138.591C137.799 25.698 137.205 25.8373 136.809 26.116C136.428 26.3947 136.237 26.8273 136.237 27.414C136.237 27.8833 136.354 28.25 136.589 28.514C136.838 28.7633 137.176 28.888 137.601 28.888Z" fill="#20A0C9"/>
<path d="M151.964 18.988C152.389 18.988 152.778 19.0393 153.13 19.142L152.58 22.508C152.14 22.4053 151.788 22.354 151.524 22.354C150.834 22.354 150.306 22.596 149.94 23.08C149.588 23.5493 149.309 24.2607 149.104 25.214V31H145.628V19.318H148.664L148.95 21.584C149.214 20.7773 149.61 20.1467 150.138 19.692C150.68 19.2227 151.289 18.988 151.964 18.988Z" fill="#20A0C9"/>
<path d="M157.934 19.318V31H154.458V19.318H157.934ZM156.174 13.158C156.775 13.158 157.266 13.3487 157.648 13.73C158.044 14.0967 158.242 14.566 158.242 15.138C158.242 15.71 158.044 16.1867 157.648 16.568C157.266 16.9347 156.775 17.118 156.174 17.118C155.572 17.118 155.081 16.9347 154.7 16.568C154.318 16.1867 154.128 15.71 154.128 15.138C154.128 14.566 154.318 14.0967 154.7 13.73C155.081 13.3487 155.572 13.158 156.174 13.158Z" fill="#20A0C9"/>
<path d="M167.509 18.944C168.521 18.944 169.313 19.252 169.885 19.868C170.457 20.484 170.743 21.3493 170.743 22.464V31H167.267V23.058C167.267 22.4713 167.171 22.068 166.981 21.848C166.805 21.6133 166.533 21.496 166.167 21.496C165.463 21.496 164.788 22.002 164.143 23.014V31H160.667V19.318H163.703L163.945 20.704C164.443 20.1173 164.979 19.6773 165.551 19.384C166.137 19.0907 166.79 18.944 167.509 18.944Z" fill="#20A0C9"/>
<path d="M184.122 20C183.359 20.308 182.237 20.462 180.756 20.462C181.519 20.7847 182.076 21.1807 182.428 21.65C182.78 22.1193 182.956 22.728 182.956 23.476C182.956 24.224 182.758 24.8987 182.362 25.5C181.966 26.0867 181.394 26.5487 180.646 26.886C179.913 27.2233 179.047 27.392 178.05 27.392C177.581 27.392 177.133 27.348 176.708 27.26C176.591 27.3187 176.495 27.414 176.422 27.546C176.363 27.6633 176.334 27.788 176.334 27.92C176.334 28.14 176.415 28.316 176.576 28.448C176.752 28.5653 177.097 28.624 177.61 28.624H179.37C180.265 28.624 181.049 28.7707 181.724 29.064C182.399 29.3573 182.919 29.7607 183.286 30.274C183.653 30.7873 183.836 31.3667 183.836 32.012C183.836 33.2293 183.308 34.1753 182.252 34.85C181.211 35.5393 179.7 35.884 177.72 35.884C176.297 35.884 175.175 35.73 174.354 35.422C173.533 35.1287 172.953 34.7107 172.616 34.168C172.293 33.6253 172.132 32.9433 172.132 32.122H175.256C175.256 32.474 175.322 32.7527 175.454 32.958C175.601 33.1633 175.857 33.3173 176.224 33.42C176.591 33.5227 177.119 33.574 177.808 33.574C178.761 33.574 179.421 33.4567 179.788 33.222C180.155 33.002 180.338 32.6793 180.338 32.254C180.338 31.902 180.199 31.6233 179.92 31.418C179.641 31.2127 179.223 31.11 178.666 31.11H176.972C175.769 31.11 174.867 30.8973 174.266 30.472C173.679 30.032 173.386 29.4747 173.386 28.8C173.386 28.3747 173.511 27.964 173.76 27.568C174.009 27.1573 174.347 26.82 174.772 26.556C174.039 26.16 173.503 25.698 173.166 25.17C172.843 24.6273 172.682 23.9747 172.682 23.212C172.682 21.9067 173.151 20.8727 174.09 20.11C175.029 19.3327 176.268 18.944 177.808 18.944C178.981 18.9733 179.971 18.856 180.778 18.592C181.599 18.328 182.443 17.9393 183.308 17.426L184.122 20ZM177.896 21.232C177.353 21.232 176.921 21.408 176.598 21.76C176.29 22.0973 176.136 22.5667 176.136 23.168C176.136 23.7987 176.29 24.29 176.598 24.642C176.921 24.9793 177.353 25.148 177.896 25.148C178.468 25.148 178.901 24.9793 179.194 24.642C179.502 24.3047 179.656 23.7987 179.656 23.124C179.656 21.8627 179.069 21.232 177.896 21.232Z" fill="#20A0C9"/>
<path d="M198.886 22.926C199.898 23.1167 200.719 23.4907 201.35 24.048C201.995 24.6053 202.318 25.4413 202.318 26.556C202.318 28.184 201.731 29.3353 200.558 30.01C199.399 30.67 197.771 31 195.674 31H190.768V15.754H195.08C197.221 15.754 198.857 16.062 199.986 16.678C201.115 17.2793 201.68 18.2693 201.68 19.648C201.68 20.5427 201.409 21.2687 200.866 21.826C200.338 22.3687 199.678 22.7353 198.886 22.926ZM194.376 18.306V21.848H195.718C197.243 21.848 198.006 21.232 198.006 20C198.006 19.384 197.801 18.9513 197.39 18.702C196.979 18.438 196.327 18.306 195.432 18.306H194.376ZM195.696 28.382C196.649 28.382 197.368 28.2427 197.852 27.964C198.351 27.6707 198.6 27.1353 198.6 26.358C198.6 24.95 197.72 24.246 195.96 24.246H194.376V28.382H195.696Z" fill="#20A0C9"/>
<path d="M214.136 31H211.122L210.968 29.526C210.117 30.758 208.937 31.374 207.426 31.374C206.355 31.374 205.541 31.0513 204.984 30.406C204.441 29.7607 204.17 28.8587 204.17 27.7V19.318H207.646V27.26C207.646 27.832 207.734 28.2353 207.91 28.47C208.101 28.69 208.387 28.8 208.768 28.8C209.501 28.8 210.132 28.3453 210.66 27.436V19.318H214.136V31Z" fill="#20A0C9"/>
<path d="M224.196 30.45C223.771 30.7433 223.272 30.9707 222.7 31.132C222.143 31.2933 221.585 31.374 221.028 31.374C218.476 31.3593 217.2 29.9513 217.2 27.15V21.738H215.55V19.318H217.2V16.788L220.676 16.392V19.318H223.36L222.986 21.738H220.676V27.106C220.676 27.6487 220.764 28.0373 220.94 28.272C221.116 28.5067 221.395 28.624 221.776 28.624C222.172 28.624 222.59 28.4993 223.03 28.25L224.196 30.45Z" fill="#20A0C9"/>
<path d="M232.682 30.45C232.257 30.7433 231.758 30.9707 231.186 31.132C230.629 31.2933 230.072 31.374 229.514 31.374C226.962 31.3593 225.686 29.9513 225.686 27.15V21.738H224.036V19.318H225.686V16.788L229.162 16.392V19.318H231.846L231.472 21.738H229.162V27.106C229.162 27.6487 229.25 28.0373 229.426 28.272C229.602 28.5067 229.881 28.624 230.262 28.624C230.658 28.624 231.076 28.4993 231.516 28.25L232.682 30.45Z" fill="#20A0C9"/>
<path d="M238.516 18.944C240.305 18.944 241.706 19.494 242.718 20.594C243.73 21.6793 244.236 23.2047 244.236 25.17C244.236 26.4167 244.001 27.5093 243.532 28.448C243.077 29.372 242.417 30.0907 241.552 30.604C240.701 31.1173 239.689 31.374 238.516 31.374C236.741 31.374 235.34 30.8313 234.314 29.746C233.302 28.646 232.796 27.1133 232.796 25.148C232.796 23.9013 233.023 22.816 233.478 21.892C233.947 20.9533 234.607 20.2273 235.458 19.714C236.323 19.2007 237.342 18.944 238.516 18.944ZM238.516 21.496C237.812 21.496 237.284 21.7967 236.932 22.398C236.58 22.9847 236.404 23.9013 236.404 25.148C236.404 26.424 236.572 27.3553 236.91 27.942C237.262 28.5287 237.797 28.822 238.516 28.822C239.22 28.822 239.748 28.5287 240.1 27.942C240.452 27.3407 240.628 26.4167 240.628 25.17C240.628 23.894 240.452 22.9627 240.1 22.376C239.762 21.7893 239.234 21.496 238.516 21.496Z" fill="#20A0C9"/>
<path d="M253.145 18.944C254.157 18.944 254.949 19.252 255.521 19.868C256.093 20.484 256.379 21.3493 256.379 22.464V31H252.903V23.058C252.903 22.4713 252.808 22.068 252.617 21.848C252.441 21.6133 252.17 21.496 251.803 21.496C251.099 21.496 250.425 22.002 249.779 23.014V31H246.303V19.318H249.339L249.581 20.704C250.08 20.1173 250.615 19.6773 251.187 19.384C251.774 19.0907 252.427 18.944 253.145 18.944Z" fill="#20A0C9"/>
<path d="M263.115 18.944C263.951 18.944 264.735 19.0687 265.469 19.318C266.202 19.5673 266.847 19.9193 267.405 20.374L266.129 22.332C265.175 21.7307 264.215 21.43 263.247 21.43C262.792 21.43 262.44 21.5107 262.191 21.672C261.956 21.8187 261.839 22.0313 261.839 22.31C261.839 22.53 261.89 22.7133 261.993 22.86C262.11 22.992 262.337 23.1313 262.675 23.278C263.012 23.4247 263.533 23.6007 264.237 23.806C265.454 24.158 266.356 24.62 266.943 25.192C267.544 25.7493 267.845 26.5267 267.845 27.524C267.845 28.316 267.617 29.0053 267.163 29.592C266.708 30.164 266.085 30.604 265.293 30.912C264.501 31.22 263.621 31.374 262.653 31.374C261.67 31.374 260.753 31.22 259.903 30.912C259.067 30.604 258.355 30.1787 257.769 29.636L259.463 27.744C260.445 28.5067 261.479 28.888 262.565 28.888C263.093 28.888 263.503 28.7927 263.797 28.602C264.105 28.4113 264.259 28.14 264.259 27.788C264.259 27.5093 264.2 27.2893 264.083 27.128C263.965 26.9667 263.738 26.82 263.401 26.688C263.063 26.5413 262.528 26.3653 261.795 26.16C260.636 25.8227 259.771 25.3533 259.199 24.752C258.627 24.1507 258.341 23.4027 258.341 22.508C258.341 21.8333 258.531 21.232 258.913 20.704C259.309 20.1613 259.866 19.736 260.585 19.428C261.318 19.1053 262.161 18.944 263.115 18.944Z" fill="#20A0C9"/>
</svg>
