<svg width="149" height="48" viewBox="0 0 149 48" fill="none" xmlns="http://www.w3.org/2000/svg">
<path d="M28.75 7.33331C26.0083 7.33331 23.75 9.59163 23.75 12.3333C23.75 12.6516 23.7863 12.9619 23.8444 13.2643L11.9531 20.2012C11.0809 19.4631 9.97013 19 8.75 19C6.00832 19 3.75 21.2583 3.75 24C3.75 26.7417 6.00832 29 8.75 29C9.97013 29 11.0809 28.5369 11.9531 27.7988L23.8444 34.7324C23.7859 35.0358 23.75 35.3473 23.75 35.6666C23.75 38.4083 26.0083 40.6666 28.75 40.6666C31.4917 40.6666 33.75 38.4083 33.75 35.6666C33.75 32.925 31.4917 30.6666 28.75 30.6666C27.5291 30.6666 26.4193 31.1322 25.5469 31.8711L13.6556 24.931C13.7137 24.6285 13.75 24.3182 13.75 24C13.75 23.6817 13.7137 23.3714 13.6556 23.069L25.5469 16.1321C26.4191 16.8702 27.5299 17.3333 28.75 17.3333C31.4917 17.3333 33.75 15.075 33.75 12.3333C33.75 9.59163 31.4917 7.33331 28.75 7.33331ZM28.75 10.6666C29.6902 10.6666 30.4167 11.3931 30.4167 12.3333C30.4167 13.2735 29.6902 14 28.75 14C27.8098 14 27.0833 13.2735 27.0833 12.3333C27.0833 11.3931 27.8098 10.6666 28.75 10.6666ZM8.75 22.3333C9.69022 22.3333 10.4167 23.0598 10.4167 24C10.4167 24.9402 9.69022 25.6666 8.75 25.6666C7.80978 25.6666 7.08333 24.9402 7.08333 24C7.08333 23.0598 7.80978 22.3333 8.75 22.3333ZM28.75 34C29.6902 34 30.4167 34.7264 30.4167 35.6666C30.4167 36.6069 29.6902 37.3333 28.75 37.3333C27.8098 37.3333 27.0833 36.6069 27.0833 35.6666C27.0833 34.7264 27.8098 34 28.75 34Z" fill="#43AFD2"/>
<path d="M57.0575 29.8725C58.6558 29.8725 59.8983 30.205 60.785 30.87C61.6717 31.535 62.115 32.5209 62.115 33.8275C62.115 35.1925 61.6775 36.225 60.8025 36.925C59.9392 37.6134 58.7783 37.9575 57.32 37.9575H56.0075V42H53.1375V29.8725H57.0575ZM57.075 35.8925C57.7517 35.8925 58.265 35.735 58.615 35.42C58.9767 35.0934 59.1575 34.5625 59.1575 33.8275C59.1575 32.5559 58.4458 31.92 57.0225 31.92H56.0075V35.8925H57.075Z" fill="#43AFD2"/>
<path d="M67.0734 32.41C68.4967 32.41 69.6109 32.8475 70.4159 33.7225C71.2209 34.5859 71.6234 35.7992 71.6234 37.3625C71.6234 38.3542 71.4367 39.2234 71.0634 39.97C70.7017 40.705 70.1767 41.2767 69.4884 41.685C68.8117 42.0934 68.0067 42.2975 67.0734 42.2975C65.6617 42.2975 64.5476 41.8659 63.7309 41.0025C62.9259 40.1275 62.5234 38.9084 62.5234 37.345C62.5234 36.3534 62.7042 35.49 63.0659 34.755C63.4392 34.0084 63.9642 33.4309 64.6409 33.0225C65.3292 32.6142 66.1401 32.41 67.0734 32.41ZM67.0734 34.44C66.5134 34.44 66.0934 34.6792 65.8134 35.1575C65.5334 35.6242 65.3934 36.3534 65.3934 37.345C65.3934 38.36 65.5276 39.1009 65.7959 39.5675C66.0759 40.0342 66.5017 40.2675 67.0734 40.2675C67.6334 40.2675 68.0534 40.0342 68.3334 39.5675C68.6134 39.0892 68.7534 38.3542 68.7534 37.3625C68.7534 36.3475 68.6134 35.6067 68.3334 35.14C68.0651 34.6734 67.6451 34.44 67.0734 34.44Z" fill="#43AFD2"/>
<path d="M76.5406 32.41C77.2056 32.41 77.8298 32.5092 78.4131 32.7075C78.9964 32.9059 79.5098 33.1859 79.9531 33.5475L78.9381 35.105C78.1798 34.6267 77.4156 34.3875 76.6456 34.3875C76.2839 34.3875 76.0039 34.4517 75.8056 34.58C75.6189 34.6967 75.5256 34.8659 75.5256 35.0875C75.5256 35.2625 75.5665 35.4084 75.6481 35.525C75.7415 35.63 75.9223 35.7409 76.1906 35.8575C76.4589 35.9742 76.8731 36.1142 77.4331 36.2775C78.4015 36.5575 79.119 36.925 79.5856 37.38C80.064 37.8234 80.3031 38.4417 80.3031 39.235C80.3031 39.865 80.1223 40.4134 79.7606 40.88C79.399 41.335 78.9031 41.685 78.2731 41.93C77.6431 42.175 76.9431 42.2975 76.1731 42.2975C75.3914 42.2975 74.6623 42.175 73.9856 41.93C73.3206 41.685 72.7548 41.3467 72.2881 40.915L73.6356 39.41C74.4173 40.0167 75.2398 40.32 76.1031 40.32C76.5231 40.32 76.8498 40.2442 77.0831 40.0925C77.3281 39.9409 77.4506 39.725 77.4506 39.445C77.4506 39.2234 77.404 39.0484 77.3106 38.92C77.2173 38.7917 77.0365 38.675 76.7681 38.57C76.4998 38.4534 76.074 38.3134 75.4906 38.15C74.569 37.8817 73.8806 37.5084 73.4256 37.03C72.9706 36.5517 72.7431 35.9567 72.7431 35.245C72.7431 34.7084 72.8948 34.23 73.1981 33.81C73.5131 33.3784 73.9564 33.04 74.5281 32.795C75.1114 32.5384 75.7823 32.41 76.5406 32.41Z" fill="#43AFD2"/>
<path d="M87.5551 41.5625C87.2168 41.7959 86.8201 41.9767 86.3651 42.105C85.9218 42.2334 85.4784 42.2975 85.0351 42.2975C83.0051 42.2859 81.9901 41.1659 81.9901 38.9375V34.6325H80.6776V32.7075H81.9901V30.695L84.7551 30.38V32.7075H86.8901L86.5926 34.6325H84.7551V38.9025C84.7551 39.3342 84.8251 39.6434 84.9651 39.83C85.1051 40.0167 85.3268 40.11 85.6301 40.11C85.9451 40.11 86.2776 40.0109 86.6276 39.8125L87.5551 41.5625Z" fill="#43AFD2"/>
<path d="M96.5859 29.575C97.4959 29.575 98.2834 29.7034 98.9484 29.96C99.6251 30.2167 100.238 30.6075 100.786 31.1325L99.4559 32.69C98.6276 32.0134 97.7409 31.675 96.7959 31.675C96.2942 31.675 95.8976 31.78 95.6059 31.99C95.3142 32.1884 95.1684 32.48 95.1684 32.865C95.1684 33.1334 95.2326 33.355 95.3609 33.53C95.4892 33.6934 95.7167 33.8509 96.0434 34.0025C96.3701 34.1542 96.8601 34.335 97.5134 34.545C98.7501 34.9417 99.6601 35.4317 100.243 36.015C100.827 36.5867 101.118 37.4034 101.118 38.465C101.118 39.2234 100.926 39.8942 100.541 40.4775C100.156 41.0492 99.6017 41.4984 98.8784 41.825C98.1551 42.14 97.2976 42.2975 96.3059 42.2975C95.3142 42.2975 94.4334 42.14 93.6634 41.825C92.9051 41.51 92.2517 41.09 91.7034 40.565L93.1559 38.9725C93.6226 39.3692 94.1009 39.6667 94.5909 39.865C95.0926 40.0634 95.6351 40.1625 96.2184 40.1625C96.8134 40.1625 97.2801 40.0342 97.6184 39.7775C97.9684 39.5092 98.1434 39.1417 98.1434 38.675C98.1434 38.3717 98.0792 38.1209 97.9509 37.9225C97.8226 37.7125 97.6009 37.5259 97.2859 37.3625C96.9709 37.1992 96.5159 37.0242 95.9209 36.8375C94.5792 36.4292 93.6226 35.9275 93.0509 35.3325C92.4909 34.7375 92.2109 33.985 92.2109 33.075C92.2109 32.375 92.3976 31.7625 92.7709 31.2375C93.1442 30.7009 93.6634 30.2925 94.3284 30.0125C94.9934 29.7209 95.7459 29.575 96.5859 29.575Z" fill="#43AFD2"/>
<path d="M108.088 32.41C108.893 32.41 109.523 32.655 109.978 33.145C110.433 33.635 110.661 34.3234 110.661 35.21V42H107.896V35.6825C107.896 35.2159 107.82 34.895 107.668 34.72C107.516 34.5334 107.301 34.44 107.021 34.44C106.461 34.44 105.924 34.8367 105.411 35.63V42H102.646V29.015L105.411 28.735V33.705C105.796 33.2734 106.204 32.9525 106.636 32.7425C107.067 32.5209 107.551 32.41 108.088 32.41Z" fill="#43AFD2"/>
<path d="M120.131 39.305C120.131 39.655 120.177 39.9117 120.271 40.075C120.376 40.2384 120.539 40.3609 120.761 40.4425L120.183 42.245C119.611 42.1984 119.145 42.0759 118.783 41.8775C118.421 41.6675 118.141 41.3409 117.943 40.8975C117.336 41.8309 116.403 42.2975 115.143 42.2975C114.221 42.2975 113.486 42.0292 112.938 41.4925C112.39 40.9559 112.116 40.2559 112.116 39.3925C112.116 38.3775 112.489 37.6017 113.236 37.065C113.982 36.5284 115.061 36.26 116.473 36.26H117.418V35.8575C117.418 35.3092 117.301 34.9359 117.068 34.7375C116.835 34.5275 116.426 34.4225 115.843 34.4225C115.54 34.4225 115.172 34.4692 114.741 34.5625C114.309 34.6442 113.866 34.7609 113.411 34.9125L112.781 33.0925C113.364 32.8709 113.959 32.7017 114.566 32.585C115.184 32.4684 115.756 32.41 116.281 32.41C117.611 32.41 118.585 32.6842 119.203 33.2325C119.821 33.7809 120.131 34.6034 120.131 35.7V39.305ZM115.948 40.32C116.578 40.32 117.068 40.0225 117.418 39.4275V37.7825H116.736C116.106 37.7825 115.633 37.8934 115.318 38.115C115.015 38.3367 114.863 38.6809 114.863 39.1475C114.863 39.5209 114.956 39.8125 115.143 40.0225C115.341 40.2209 115.61 40.32 115.948 40.32Z" fill="#43AFD2"/>
<path d="M127.373 32.445C127.711 32.445 128.021 32.4859 128.301 32.5675L127.863 35.245C127.513 35.1634 127.233 35.1225 127.023 35.1225C126.475 35.1225 126.055 35.315 125.763 35.7C125.483 36.0734 125.261 36.6392 125.098 37.3975V42H122.333V32.7075H124.748L124.976 34.51C125.186 33.8684 125.501 33.3667 125.921 33.005C126.352 32.6317 126.836 32.445 127.373 32.445Z" fill="#43AFD2"/>
<path d="M136.93 37.17C136.93 37.555 136.912 37.8875 136.877 38.1675H131.12C131.213 38.9492 131.435 39.4975 131.785 39.8125C132.135 40.1275 132.619 40.285 133.237 40.285C133.611 40.285 133.972 40.2209 134.322 40.0925C134.672 39.9525 135.051 39.7425 135.46 39.4625L136.597 41.0025C135.512 41.8659 134.305 42.2975 132.975 42.2975C131.47 42.2975 130.315 41.8542 129.51 40.9675C128.705 40.0809 128.302 38.8909 128.302 37.3975C128.302 36.4525 128.471 35.6067 128.81 34.86C129.148 34.1017 129.644 33.5067 130.297 33.075C130.951 32.6317 131.732 32.41 132.642 32.41C133.984 32.41 135.034 32.83 135.792 33.67C136.551 34.51 136.93 35.6767 136.93 37.17ZM134.217 36.3825C134.194 34.9592 133.692 34.2475 132.712 34.2475C132.234 34.2475 131.861 34.4225 131.592 34.7725C131.336 35.1225 131.178 35.7 131.12 36.505H134.217V36.3825Z" fill="#43AFD2"/>
<path d="M143.523 32.445C143.861 32.445 144.17 32.4859 144.45 32.5675L144.013 35.245C143.663 35.1634 143.383 35.1225 143.173 35.1225C142.625 35.1225 142.205 35.315 141.913 35.7C141.633 36.0734 141.411 36.6392 141.248 37.3975V42H138.483V32.7075H140.898L141.125 34.51C141.335 33.8684 141.65 33.3667 142.07 33.005C142.502 32.6317 142.986 32.445 143.523 32.445Z" fill="#43AFD2"/>
<path d="M57.12 18.9C57.12 20.0067 56.92 20.92 56.52 21.64C56.1334 22.36 55.6134 22.92 54.96 23.32C54.32 23.7334 53.5534 24.0867 52.66 24.38L51.78 22.06C52.3667 21.8334 52.8067 21.5734 53.1 21.28C53.3934 20.9867 53.5867 20.6467 53.68 20.26C53.7867 19.8734 53.84 19.38 53.84 18.78V7.14003H57.12V18.9Z" fill="#7B7E81"/>
<path d="M68.5477 21H65.8077L65.6677 19.66C64.8944 20.78 63.821 21.34 62.4477 21.34C61.4744 21.34 60.7344 21.0467 60.2277 20.46C59.7344 19.8734 59.4877 19.0534 59.4877 18V10.38H62.6477V17.6C62.6477 18.12 62.7277 18.4867 62.8877 18.7C63.061 18.9 63.321 19 63.6677 19C64.3344 19 64.9077 18.5867 65.3877 17.76V10.38H68.5477V21Z" fill="#7B7E81"/>
<path d="M74.193 10.38V21H71.033V10.38H74.193ZM72.593 4.78003C73.1397 4.78003 73.5863 4.95336 73.933 5.30003C74.293 5.63336 74.473 6.06003 74.473 6.58003C74.473 7.10003 74.293 7.53336 73.933 7.88003C73.5863 8.21336 73.1397 8.38003 72.593 8.38003C72.0463 8.38003 71.5997 8.21336 71.253 7.88003C70.9063 7.53336 70.733 7.10003 70.733 6.58003C70.733 6.06003 70.9063 5.63336 71.253 5.30003C71.5997 4.95336 72.0463 4.78003 72.593 4.78003Z" fill="#7B7E81"/>
<path d="M84.1575 10.38V12.6L79.3575 18.6H84.2575L83.9775 21H75.6975V18.76L80.5175 12.76H76.1175V10.38H84.1575Z" fill="#7B7E81"/>
<path d="M95.1233 6.80003C96.1633 6.80003 97.0633 6.9467 97.8233 7.24003C98.5966 7.53336 99.2966 7.98003 99.9233 8.58003L98.4033 10.36C97.4566 9.5867 96.4433 9.20003 95.3633 9.20003C94.79 9.20003 94.3366 9.32003 94.0033 9.56003C93.67 9.7867 93.5033 10.12 93.5033 10.56C93.5033 10.8667 93.5766 11.12 93.7233 11.32C93.87 11.5067 94.13 11.6867 94.5033 11.86C94.8766 12.0334 95.4366 12.24 96.1833 12.48C97.5966 12.9334 98.6366 13.4934 99.3033 14.16C99.97 14.8134 100.303 15.7467 100.303 16.96C100.303 17.8267 100.083 18.5934 99.6433 19.26C99.2033 19.9134 98.57 20.4267 97.7433 20.8C96.9166 21.16 95.9366 21.34 94.8033 21.34C93.67 21.34 92.6633 21.16 91.7833 20.8C90.9166 20.44 90.17 19.96 89.5433 19.36L91.2033 17.54C91.7366 17.9934 92.2833 18.3334 92.8433 18.56C93.4166 18.7867 94.0366 18.9 94.7033 18.9C95.3833 18.9 95.9166 18.7534 96.3033 18.46C96.7033 18.1534 96.9033 17.7334 96.9033 17.2C96.9033 16.8534 96.83 16.5667 96.6833 16.34C96.5366 16.1 96.2833 15.8867 95.9233 15.7C95.5633 15.5134 95.0433 15.3134 94.3633 15.1C92.83 14.6334 91.7366 14.06 91.0833 13.38C90.4433 12.7 90.1233 11.84 90.1233 10.8C90.1233 10 90.3366 9.30003 90.7633 8.70003C91.19 8.0867 91.7833 7.62003 92.5433 7.30003C93.3033 6.9667 94.1633 6.80003 95.1233 6.80003Z" fill="#7B7E81"/>
<path d="M106.649 10.04C108.275 10.04 109.549 10.54 110.469 11.54C111.389 12.5267 111.849 13.9134 111.849 15.7C111.849 16.8334 111.635 17.8267 111.209 18.68C110.795 19.52 110.195 20.1734 109.409 20.64C108.635 21.1067 107.715 21.34 106.649 21.34C105.035 21.34 103.762 20.8467 102.829 19.86C101.909 18.86 101.449 17.4667 101.449 15.68C101.449 14.5467 101.655 13.56 102.069 12.72C102.495 11.8667 103.095 11.2067 103.869 10.74C104.655 10.2734 105.582 10.04 106.649 10.04ZM106.649 12.36C106.009 12.36 105.529 12.6334 105.209 13.18C104.889 13.7134 104.729 14.5467 104.729 15.68C104.729 16.84 104.882 17.6867 105.189 18.22C105.509 18.7534 105.995 19.02 106.649 19.02C107.289 19.02 107.769 18.7534 108.089 18.22C108.409 17.6734 108.569 16.8334 108.569 15.7C108.569 14.54 108.409 13.6934 108.089 13.16C107.782 12.6267 107.302 12.36 106.649 12.36Z" fill="#7B7E81"/>
<path d="M118.328 10.04C119.062 10.04 119.722 10.1467 120.308 10.36C120.895 10.5734 121.448 10.9 121.968 11.34L120.608 13.22C119.942 12.7134 119.268 12.46 118.588 12.46C117.882 12.46 117.348 12.72 116.988 13.24C116.628 13.76 116.448 14.6 116.448 15.76C116.448 16.88 116.628 17.6734 116.988 18.14C117.348 18.6067 117.868 18.84 118.548 18.84C118.908 18.84 119.235 18.7867 119.528 18.68C119.822 18.56 120.175 18.3734 120.588 18.12L121.968 20.08C120.915 20.92 119.722 21.34 118.388 21.34C117.308 21.34 116.375 21.1134 115.588 20.66C114.802 20.1934 114.195 19.5467 113.768 18.72C113.342 17.88 113.128 16.9 113.128 15.78C113.128 14.66 113.342 13.6667 113.768 12.8C114.195 11.9334 114.802 11.26 115.588 10.78C116.375 10.2867 117.288 10.04 118.328 10.04Z" fill="#7B7E81"/>
<path d="M126.459 10.38V21H123.299V10.38H126.459ZM124.859 4.78003C125.405 4.78003 125.852 4.95336 126.199 5.30003C126.559 5.63336 126.739 6.06003 126.739 6.58003C126.739 7.10003 126.559 7.53336 126.199 7.88003C125.852 8.21336 125.405 8.38003 124.859 8.38003C124.312 8.38003 123.865 8.21336 123.519 7.88003C123.172 7.53336 122.999 7.10003 122.999 6.58003C122.999 6.06003 123.172 5.63336 123.519 5.30003C123.865 4.95336 124.312 4.78003 124.859 4.78003Z" fill="#7B7E81"/>
<path d="M137.383 17.92C137.383 18.32 137.436 18.6134 137.543 18.8C137.663 18.9867 137.85 19.1267 138.103 19.22L137.443 21.28C136.79 21.2267 136.256 21.0867 135.843 20.86C135.43 20.62 135.11 20.2467 134.883 19.74C134.19 20.8067 133.123 21.34 131.683 21.34C130.63 21.34 129.79 21.0334 129.163 20.42C128.536 19.8067 128.223 19.0067 128.223 18.02C128.223 16.86 128.65 15.9734 129.503 15.36C130.356 14.7467 131.59 14.44 133.203 14.44H134.283V13.98C134.283 13.3534 134.15 12.9267 133.883 12.7C133.616 12.46 133.15 12.34 132.483 12.34C132.136 12.34 131.716 12.3934 131.223 12.5C130.73 12.5934 130.223 12.7267 129.703 12.9L128.983 10.82C129.65 10.5667 130.33 10.3734 131.023 10.24C131.73 10.1067 132.383 10.04 132.983 10.04C134.503 10.04 135.616 10.3534 136.323 10.98C137.03 11.6067 137.383 12.5467 137.383 13.8V17.92ZM132.603 19.08C133.323 19.08 133.883 18.74 134.283 18.06V16.18H133.503C132.783 16.18 132.243 16.3067 131.883 16.56C131.536 16.8134 131.363 17.2067 131.363 17.74C131.363 18.1667 131.47 18.5 131.683 18.74C131.91 18.9667 132.216 19.08 132.603 19.08Z" fill="#7B7E81"/>
<path d="M142.525 21.34C141.605 21.34 140.885 21.08 140.365 20.56C139.858 20.0267 139.605 19.2734 139.605 18.3V6.16003L142.765 5.82003V18.18C142.765 18.62 142.945 18.84 143.305 18.84C143.492 18.84 143.665 18.8067 143.825 18.74L144.445 20.98C143.872 21.22 143.232 21.34 142.525 21.34Z" fill="#7B7E81"/>
</svg>
