<svg width="248" height="48" viewBox="0 0 248 48" fill="none" xmlns="http://www.w3.org/2000/svg">
<path d="M23 10.6666C20.8067 10.6666 19 12.4733 19 14.6666C19 14.9212 19.0291 15.1695 19.0755 15.4114L9.5625 20.9609C8.86472 20.3704 7.9761 20 7 20C4.80665 20 3 21.8066 3 24C3 26.1933 4.80665 28 7 28C7.9761 28 8.86472 27.6295 9.5625 27.039L19.0755 32.5859C19.0287 32.8286 19 33.0778 19 33.3333C19 35.5266 20.8067 37.3333 23 37.3333C25.1933 37.3333 27 35.5266 27 33.3333C27 31.1399 25.1933 29.3333 23 29.3333C22.0233 29.3333 21.1355 29.7057 20.4375 30.2968L10.9245 24.7448C10.9709 24.5028 11 24.2546 11 24C11 23.7454 10.9709 23.4971 10.9245 23.2552L20.4375 17.7057C21.1353 18.2962 22.0239 18.6666 23 18.6666C25.1933 18.6666 27 16.86 27 14.6666C27 12.4733 25.1933 10.6666 23 10.6666ZM23 13.3333C23.7522 13.3333 24.3333 13.9145 24.3333 14.6666C24.3333 15.4188 23.7522 16 23 16C22.2478 16 21.6667 15.4188 21.6667 14.6666C21.6667 13.9145 22.2478 13.3333 23 13.3333ZM7 22.6666C7.75217 22.6666 8.33333 23.2478 8.33333 24C8.33333 24.7521 7.75217 25.3333 7 25.3333C6.24783 25.3333 5.66667 24.7521 5.66667 24C5.66667 23.2478 6.24783 22.6666 7 22.6666ZM23 32C23.7522 32 24.3333 32.5811 24.3333 33.3333C24.3333 34.0855 23.7522 34.6666 23 34.6666C22.2478 34.6666 21.6667 34.0855 21.6667 33.3333C21.6667 32.5811 22.2478 32 23 32Z" fill="#43AFD2"/>
<path d="M142.7 16.22C144.527 16.22 145.947 16.6 146.96 17.36C147.973 18.12 148.48 19.2467 148.48 20.74C148.48 22.3 147.98 23.48 146.98 24.28C145.993 25.0667 144.667 25.46 143 25.46H141.5V30.08H138.22V16.22H142.7ZM142.72 23.1C143.493 23.1 144.08 22.92 144.48 22.56C144.893 22.1867 145.1 21.58 145.1 20.74C145.1 19.2867 144.287 18.56 142.66 18.56H141.5V23.1H142.72Z" fill="#43AFD2"/>
<path d="M154.147 19.12C155.773 19.12 157.047 19.62 157.967 20.62C158.887 21.6067 159.347 22.9934 159.347 24.78C159.347 25.9134 159.133 26.9067 158.707 27.76C158.293 28.6 157.693 29.2534 156.907 29.72C156.133 30.1867 155.213 30.42 154.147 30.42C152.533 30.42 151.26 29.9267 150.327 28.94C149.407 27.94 148.947 26.5467 148.947 24.76C148.947 23.6267 149.153 22.64 149.567 21.8C149.993 20.9467 150.593 20.2867 151.367 19.82C152.153 19.3534 153.08 19.12 154.147 19.12ZM154.147 21.44C153.507 21.44 153.027 21.7134 152.707 22.26C152.387 22.7934 152.227 23.6267 152.227 24.76C152.227 25.92 152.38 26.7667 152.687 27.3C153.007 27.8334 153.493 28.1 154.147 28.1C154.787 28.1 155.267 27.8334 155.587 27.3C155.907 26.7534 156.067 25.9134 156.067 24.78C156.067 23.62 155.907 22.7734 155.587 22.24C155.28 21.7067 154.8 21.44 154.147 21.44Z" fill="#43AFD2"/>
<path d="M164.966 19.12C165.726 19.12 166.44 19.2334 167.106 19.46C167.773 19.6867 168.36 20.0067 168.866 20.42L167.706 22.2C166.84 21.6534 165.966 21.38 165.086 21.38C164.673 21.38 164.353 21.4534 164.126 21.6C163.913 21.7334 163.806 21.9267 163.806 22.18C163.806 22.38 163.853 22.5467 163.946 22.68C164.053 22.8 164.26 22.9267 164.566 23.06C164.873 23.1934 165.346 23.3534 165.986 23.54C167.093 23.86 167.913 24.28 168.446 24.8C168.993 25.3067 169.266 26.0134 169.266 26.92C169.266 27.64 169.06 28.2667 168.646 28.8C168.233 29.32 167.666 29.72 166.946 30C166.226 30.28 165.426 30.42 164.546 30.42C163.653 30.42 162.82 30.28 162.046 30C161.286 29.72 160.64 29.3334 160.106 28.84L161.646 27.12C162.54 27.8134 163.48 28.16 164.466 28.16C164.946 28.16 165.32 28.0734 165.586 27.9C165.866 27.7267 166.006 27.48 166.006 27.16C166.006 26.9067 165.953 26.7067 165.846 26.56C165.74 26.4134 165.533 26.28 165.226 26.16C164.92 26.0267 164.433 25.8667 163.766 25.68C162.713 25.3734 161.926 24.9467 161.406 24.4C160.886 23.8534 160.626 23.1734 160.626 22.36C160.626 21.7467 160.8 21.2 161.146 20.72C161.506 20.2267 162.013 19.84 162.666 19.56C163.333 19.2667 164.1 19.12 164.966 19.12Z" fill="#43AFD2"/>
<path d="M177.554 29.58C177.168 29.8467 176.714 30.0534 176.194 30.2C175.688 30.3467 175.181 30.42 174.674 30.42C172.354 30.4067 171.194 29.1267 171.194 26.58V21.66H169.694V19.46H171.194V17.16L174.354 16.8V19.46H176.794L176.454 21.66H174.354V26.54C174.354 27.0334 174.434 27.3867 174.594 27.6C174.754 27.8134 175.008 27.92 175.354 27.92C175.714 27.92 176.094 27.8067 176.494 27.58L177.554 29.58Z" fill="#43AFD2"/>
<path d="M187.875 15.88C188.915 15.88 189.815 16.0267 190.575 16.32C191.349 16.6134 192.049 17.06 192.675 17.66L191.155 19.44C190.209 18.6667 189.195 18.28 188.115 18.28C187.542 18.28 187.089 18.4 186.755 18.64C186.422 18.8667 186.255 19.2 186.255 19.64C186.255 19.9467 186.329 20.2 186.475 20.4C186.622 20.5867 186.882 20.7667 187.255 20.94C187.629 21.1134 188.189 21.32 188.935 21.56C190.349 22.0134 191.389 22.5734 192.055 23.24C192.722 23.8934 193.055 24.8267 193.055 26.04C193.055 26.9067 192.835 27.6734 192.395 28.34C191.955 28.9934 191.322 29.5067 190.495 29.88C189.669 30.24 188.689 30.42 187.555 30.42C186.422 30.42 185.415 30.24 184.535 29.88C183.669 29.52 182.922 29.04 182.295 28.44L183.955 26.62C184.489 27.0734 185.035 27.4134 185.595 27.64C186.169 27.8667 186.789 27.98 187.455 27.98C188.135 27.98 188.669 27.8334 189.055 27.54C189.455 27.2334 189.655 26.8134 189.655 26.28C189.655 25.9334 189.582 25.6467 189.435 25.42C189.289 25.18 189.035 24.9667 188.675 24.78C188.315 24.5934 187.795 24.3934 187.115 24.18C185.582 23.7134 184.489 23.14 183.835 22.46C183.195 21.78 182.875 20.92 182.875 19.88C182.875 19.08 183.089 18.38 183.515 17.78C183.942 17.1667 184.535 16.7 185.295 16.38C186.055 16.0467 186.915 15.88 187.875 15.88Z" fill="#43AFD2"/>
<path d="M201.021 19.12C201.941 19.12 202.661 19.4 203.181 19.96C203.701 20.52 203.961 21.3067 203.961 22.32V30.08H200.801V22.86C200.801 22.3267 200.714 21.96 200.541 21.76C200.367 21.5467 200.121 21.44 199.801 21.44C199.161 21.44 198.547 21.8934 197.961 22.8V30.08H194.801V15.24L197.961 14.92V20.6C198.401 20.1067 198.867 19.74 199.361 19.5C199.854 19.2467 200.407 19.12 201.021 19.12Z" fill="#43AFD2"/>
<path d="M214.784 27C214.784 27.4 214.837 27.6934 214.944 27.88C215.064 28.0667 215.25 28.2067 215.504 28.3L214.844 30.36C214.19 30.3067 213.657 30.1667 213.244 29.94C212.83 29.7 212.51 29.3267 212.284 28.82C211.59 29.8867 210.524 30.42 209.084 30.42C208.03 30.42 207.19 30.1134 206.564 29.5C205.937 28.8867 205.624 28.0867 205.624 27.1C205.624 25.94 206.05 25.0534 206.904 24.44C207.757 23.8267 208.99 23.52 210.604 23.52H211.684V23.06C211.684 22.4334 211.55 22.0067 211.284 21.78C211.017 21.54 210.55 21.42 209.884 21.42C209.537 21.42 209.117 21.4734 208.624 21.58C208.13 21.6734 207.624 21.8067 207.104 21.98L206.384 19.9C207.05 19.6467 207.73 19.4534 208.424 19.32C209.13 19.1867 209.784 19.12 210.384 19.12C211.904 19.12 213.017 19.4334 213.724 20.06C214.43 20.6867 214.784 21.6267 214.784 22.88V27ZM210.004 28.16C210.724 28.16 211.284 27.82 211.684 27.14V25.26H210.904C210.184 25.26 209.644 25.3867 209.284 25.64C208.937 25.8934 208.764 26.2867 208.764 26.82C208.764 27.2467 208.87 27.58 209.084 27.82C209.31 28.0467 209.617 28.16 210.004 28.16Z" fill="#43AFD2"/>
<path d="M223.061 19.16C223.447 19.16 223.801 19.2067 224.121 19.3L223.621 22.36C223.221 22.2667 222.901 22.22 222.661 22.22C222.034 22.22 221.554 22.44 221.221 22.88C220.901 23.3067 220.647 23.9534 220.461 24.82V30.08H217.301V19.46H220.061L220.321 21.52C220.561 20.7867 220.921 20.2134 221.401 19.8C221.894 19.3734 222.447 19.16 223.061 19.16Z" fill="#43AFD2"/>
<path d="M233.982 24.56C233.982 25 233.962 25.38 233.922 25.7H227.342C227.449 26.5934 227.702 27.22 228.102 27.58C228.502 27.94 229.056 28.12 229.762 28.12C230.189 28.12 230.602 28.0467 231.002 27.9C231.402 27.74 231.836 27.5 232.302 27.18L233.602 28.94C232.362 29.9267 230.982 30.42 229.462 30.42C227.742 30.42 226.422 29.9134 225.502 28.9C224.582 27.8867 224.122 26.5267 224.122 24.82C224.122 23.74 224.316 22.7734 224.702 21.92C225.089 21.0534 225.656 20.3734 226.402 19.88C227.149 19.3734 228.042 19.12 229.082 19.12C230.616 19.12 231.816 19.6 232.682 20.56C233.549 21.52 233.982 22.8534 233.982 24.56ZM230.882 23.66C230.856 22.0334 230.282 21.22 229.162 21.22C228.616 21.22 228.189 21.42 227.882 21.82C227.589 22.22 227.409 22.88 227.342 23.8H230.882V23.66Z" fill="#43AFD2"/>
<path d="M241.518 19.16C241.904 19.16 242.258 19.2067 242.578 19.3L242.078 22.36C241.678 22.2667 241.358 22.22 241.118 22.22C240.491 22.22 240.011 22.44 239.678 22.88C239.358 23.3067 239.104 23.9534 238.918 24.82V30.08H235.758V19.46H238.518L238.778 21.52C239.018 20.7867 239.378 20.2134 239.858 19.8C240.351 19.3734 240.904 19.16 241.518 19.16Z" fill="#43AFD2"/>
<path d="M45.34 28.12C45.34 29.2267 45.14 30.14 44.74 30.86C44.3533 31.58 43.8333 32.14 43.18 32.54C42.54 32.9533 41.7733 33.3067 40.88 33.6L40 31.28C40.5867 31.0533 41.0267 30.7933 41.32 30.5C41.6133 30.2067 41.8067 29.8667 41.9 29.48C42.0067 29.0933 42.06 28.6 42.06 28V16.36H45.34V28.12Z" fill="#7B7E81"/>
<path d="M56.7677 30.22H54.0277L53.8877 28.88C53.1143 30 52.041 30.56 50.6677 30.56C49.6943 30.56 48.9543 30.2667 48.4477 29.68C47.9543 29.0933 47.7077 28.2733 47.7077 27.22V19.6H50.8677V26.82C50.8677 27.34 50.9477 27.7067 51.1077 27.92C51.281 28.12 51.541 28.22 51.8877 28.22C52.5543 28.22 53.1277 27.8067 53.6077 26.98V19.6H56.7677V30.22Z" fill="#7B7E81"/>
<path d="M62.413 19.6V30.22H59.253V19.6H62.413ZM60.813 14C61.3596 14 61.8063 14.1733 62.153 14.52C62.513 14.8533 62.693 15.28 62.693 15.8C62.693 16.32 62.513 16.7533 62.153 17.1C61.8063 17.4333 61.3596 17.6 60.813 17.6C60.2663 17.6 59.8196 17.4333 59.473 17.1C59.1263 16.7533 58.953 16.32 58.953 15.8C58.953 15.28 59.1263 14.8533 59.473 14.52C59.8196 14.1733 60.2663 14 60.813 14Z" fill="#7B7E81"/>
<path d="M72.3775 19.6V21.82L67.5775 27.82H72.4775L72.1975 30.22H63.9175V27.98L68.7375 21.98H64.3375V19.6H72.3775Z" fill="#7B7E81"/>
<path d="M83.3433 16.02C84.3833 16.02 85.2833 16.1667 86.0433 16.46C86.8166 16.7533 87.5166 17.2 88.1433 17.8L86.6233 19.58C85.6766 18.8067 84.6633 18.42 83.5833 18.42C83.0099 18.42 82.5566 18.54 82.2233 18.78C81.8899 19.0067 81.7233 19.34 81.7233 19.78C81.7233 20.0867 81.7966 20.34 81.9433 20.54C82.0899 20.7267 82.3499 20.9067 82.7233 21.08C83.0966 21.2533 83.6566 21.46 84.4033 21.7C85.8166 22.1533 86.8566 22.7133 87.5233 23.38C88.1899 24.0333 88.5233 24.9667 88.5233 26.18C88.5233 27.0467 88.3033 27.8133 87.8633 28.48C87.4233 29.1333 86.79 29.6467 85.9633 30.02C85.1366 30.38 84.1566 30.56 83.0233 30.56C81.8899 30.56 80.8833 30.38 80.0033 30.02C79.1366 29.66 78.3899 29.18 77.7633 28.58L79.4233 26.76C79.9566 27.2133 80.5033 27.5533 81.0633 27.78C81.6366 28.0067 82.2566 28.12 82.9233 28.12C83.6033 28.12 84.1366 27.9733 84.5233 27.68C84.9233 27.3733 85.1233 26.9533 85.1233 26.42C85.1233 26.0733 85.0499 25.7867 84.9033 25.56C84.7566 25.32 84.5033 25.1067 84.1433 24.92C83.7833 24.7333 83.2633 24.5333 82.5833 24.32C81.0499 23.8533 79.9566 23.28 79.3033 22.6C78.6633 21.92 78.3433 21.06 78.3433 20.02C78.3433 19.22 78.5566 18.52 78.9833 17.92C79.41 17.3067 80.0033 16.84 80.7633 16.52C81.5233 16.1867 82.3833 16.02 83.3433 16.02Z" fill="#7B7E81"/>
<path d="M94.8686 19.26C96.4953 19.26 97.7686 19.76 98.6886 20.76C99.6086 21.7467 100.069 23.1333 100.069 24.92C100.069 26.0533 99.8553 27.0467 99.4286 27.9C99.0153 28.74 98.4153 29.3933 97.6286 29.86C96.8553 30.3267 95.9353 30.56 94.8686 30.56C93.2553 30.56 91.9819 30.0667 91.0486 29.08C90.1286 28.08 89.6686 26.6867 89.6686 24.9C89.6686 23.7667 89.8753 22.78 90.2886 21.94C90.7153 21.0867 91.3153 20.4267 92.0886 19.96C92.8753 19.4933 93.8019 19.26 94.8686 19.26ZM94.8686 21.58C94.2286 21.58 93.7486 21.8533 93.4286 22.4C93.1086 22.9333 92.9486 23.7667 92.9486 24.9C92.9486 26.06 93.1019 26.9067 93.4086 27.44C93.7286 27.9733 94.2153 28.24 94.8686 28.24C95.5086 28.24 95.9886 27.9733 96.3086 27.44C96.6286 26.8933 96.7886 26.0533 96.7886 24.92C96.7886 23.76 96.6286 22.9133 96.3086 22.38C96.0019 21.8467 95.5219 21.58 94.8686 21.58Z" fill="#7B7E81"/>
<path d="M106.548 19.26C107.282 19.26 107.942 19.3667 108.528 19.58C109.115 19.7933 109.668 20.12 110.188 20.56L108.828 22.44C108.162 21.9333 107.488 21.68 106.808 21.68C106.102 21.68 105.568 21.94 105.208 22.46C104.848 22.98 104.668 23.82 104.668 24.98C104.668 26.1 104.848 26.8933 105.208 27.36C105.568 27.8267 106.088 28.06 106.768 28.06C107.128 28.06 107.455 28.0067 107.748 27.9C108.042 27.78 108.395 27.5933 108.808 27.34L110.188 29.3C109.135 30.14 107.942 30.56 106.608 30.56C105.528 30.56 104.595 30.3333 103.808 29.88C103.022 29.4133 102.415 28.7667 101.988 27.94C101.562 27.1 101.348 26.12 101.348 25C101.348 23.88 101.562 22.8867 101.988 22.02C102.415 21.1533 103.022 20.48 103.808 20C104.595 19.5067 105.508 19.26 106.548 19.26Z" fill="#7B7E81"/>
<path d="M114.679 19.6V30.22H111.519V19.6H114.679ZM113.079 14C113.625 14 114.072 14.1733 114.419 14.52C114.779 14.8533 114.959 15.28 114.959 15.8C114.959 16.32 114.779 16.7533 114.419 17.1C114.072 17.4333 113.625 17.6 113.079 17.6C112.532 17.6 112.085 17.4333 111.739 17.1C111.392 16.7533 111.219 16.32 111.219 15.8C111.219 15.28 111.392 14.8533 111.739 14.52C112.085 14.1733 112.532 14 113.079 14Z" fill="#7B7E81"/>
<path d="M125.603 27.14C125.603 27.54 125.656 27.8333 125.763 28.02C125.883 28.2067 126.07 28.3467 126.323 28.44L125.663 30.5C125.01 30.4467 124.476 30.3067 124.063 30.08C123.65 29.84 123.33 29.4667 123.103 28.96C122.41 30.0267 121.343 30.56 119.903 30.56C118.85 30.56 118.01 30.2533 117.383 29.64C116.756 29.0267 116.443 28.2267 116.443 27.24C116.443 26.08 116.87 25.1933 117.723 24.58C118.576 23.9667 119.81 23.66 121.423 23.66H122.503V23.2C122.503 22.5733 122.37 22.1467 122.103 21.92C121.836 21.68 121.37 21.56 120.703 21.56C120.356 21.56 119.936 21.6133 119.443 21.72C118.95 21.8133 118.443 21.9467 117.923 22.12L117.203 20.04C117.87 19.7867 118.55 19.5933 119.243 19.46C119.95 19.3267 120.603 19.26 121.203 19.26C122.723 19.26 123.836 19.5733 124.543 20.2C125.25 20.8267 125.603 21.7667 125.603 23.02V27.14ZM120.823 28.3C121.543 28.3 122.103 27.96 122.503 27.28V25.4H121.723C121.003 25.4 120.463 25.5267 120.103 25.78C119.756 26.0333 119.583 26.4267 119.583 26.96C119.583 27.3867 119.69 27.72 119.903 27.96C120.13 28.1867 120.436 28.3 120.823 28.3Z" fill="#7B7E81"/>
<path d="M130.745 30.56C129.825 30.56 129.105 30.3 128.585 29.78C128.078 29.2467 127.825 28.4933 127.825 27.52V15.38L130.985 15.04V27.4C130.985 27.84 131.165 28.06 131.525 28.06C131.712 28.06 131.885 28.0267 132.045 27.96L132.665 30.2C132.092 30.44 131.452 30.56 130.745 30.56Z" fill="#7B7E81"/>
</svg>
