<svg width="249" height="48" viewBox="0 0 249 48" fill="none" xmlns="http://www.w3.org/2000/svg">
<path d="M23 10.6667C20.8067 10.6667 19 12.4733 19 14.6667C19 14.9213 19.0291 15.1695 19.0755 15.4114L9.5625 20.9609C8.86472 20.3705 7.9761 20 7 20C4.80665 20 3 21.8066 3 24C3 26.1933 4.80665 28 7 28C7.9761 28 8.86472 27.6295 9.5625 27.0391L19.0755 32.5859C19.0287 32.8287 19 33.0778 19 33.3333C19 35.5267 20.8067 37.3333 23 37.3333C25.1933 37.3333 27 35.5267 27 33.3333C27 31.14 25.1933 29.3333 23 29.3333C22.0233 29.3333 21.1355 29.7058 20.4375 30.2969L10.9245 24.7448C10.9709 24.5028 11 24.2546 11 24C11 23.7454 10.9709 23.4972 10.9245 23.2552L20.4375 17.7057C21.1353 18.2962 22.0239 18.6667 23 18.6667C25.1933 18.6667 27 16.86 27 14.6667C27 12.4733 25.1933 10.6667 23 10.6667ZM23 13.3333C23.7522 13.3333 24.3333 13.9145 24.3333 14.6667C24.3333 15.4188 23.7522 16 23 16C22.2478 16 21.6667 15.4188 21.6667 14.6667C21.6667 13.9145 22.2478 13.3333 23 13.3333ZM7 22.6667C7.75217 22.6667 8.33333 23.2478 8.33333 24C8.33333 24.7522 7.75217 25.3333 7 25.3333C6.24783 25.3333 5.66667 24.7522 5.66667 24C5.66667 23.2478 6.24783 22.6667 7 22.6667ZM23 32C23.7522 32 24.3333 32.5812 24.3333 33.3333C24.3333 34.0855 23.7522 34.6667 23 34.6667C22.2478 34.6667 21.6667 34.0855 21.6667 33.3333C21.6667 32.5812 22.2478 32 23 32Z" fill="#20A0C9"/>
<path d="M53.1781 31H48.5801L44.1801 19.186C44.3267 20.3447 44.4367 21.3713 44.5101 22.266C44.5981 23.146 44.6421 24.1947 44.6421 25.412V31H41.4301V15.754H45.9181L50.4281 27.59C50.1054 25.5807 49.9441 23.6887 49.9441 21.914V15.754H53.1781V31Z" fill="#103744"/>
<path d="M61.0119 18.944C62.8013 18.944 64.2019 19.494 65.2139 20.594C66.2259 21.6793 66.7319 23.2047 66.7319 25.17C66.7319 26.4167 66.4973 27.5093 66.0279 28.448C65.5733 29.372 64.9133 30.0907 64.0479 30.604C63.1973 31.1173 62.1853 31.374 61.0119 31.374C59.2373 31.374 57.8366 30.8313 56.8099 29.746C55.7979 28.646 55.2919 27.1133 55.2919 25.148C55.2919 23.9013 55.5193 22.816 55.9739 21.892C56.4433 20.9533 57.1033 20.2273 57.9539 19.714C58.8193 19.2007 59.8386 18.944 61.0119 18.944ZM61.0119 21.496C60.3079 21.496 59.7799 21.7967 59.4279 22.398C59.0759 22.9847 58.8999 23.9013 58.8999 25.148C58.8999 26.424 59.0686 27.3553 59.4059 27.942C59.7579 28.5287 60.2933 28.822 61.0119 28.822C61.7159 28.822 62.2439 28.5287 62.5959 27.942C62.9479 27.3407 63.1239 26.4167 63.1239 25.17C63.1239 23.894 62.9479 22.9627 62.5959 22.376C62.2586 21.7893 61.7306 21.496 61.0119 21.496Z" fill="#103744"/>
<path d="M75.4216 18.944C76.8149 18.944 77.8856 19.494 78.6336 20.594C79.3816 21.6793 79.7556 23.2047 79.7556 25.17C79.7556 26.3727 79.5649 27.4433 79.1836 28.382C78.8169 29.3207 78.2816 30.054 77.5776 30.582C76.8883 31.11 76.0669 31.374 75.1136 31.374C74.4829 31.374 73.9036 31.242 73.3756 30.978C72.8623 30.714 72.4223 30.3473 72.0556 29.878L71.8796 31H68.7996V14.676L72.2756 14.302V20.506C72.6276 20.022 73.0749 19.6407 73.6176 19.362C74.1749 19.0833 74.7763 18.944 75.4216 18.944ZM74.1016 28.844C75.4656 28.844 76.1476 27.6193 76.1476 25.17C76.1476 23.7767 75.9863 22.816 75.6636 22.288C75.3409 21.76 74.8716 21.496 74.2556 21.496C73.4783 21.496 72.8183 21.9507 72.2756 22.86V27.722C72.4956 28.074 72.7596 28.3527 73.0676 28.558C73.3903 28.7487 73.7349 28.844 74.1016 28.844Z" fill="#103744"/>
<path d="M86.0406 18.944C86.8766 18.944 87.6612 19.0687 88.3946 19.318C89.1279 19.5673 89.7732 19.9193 90.3306 20.374L89.0546 22.332C88.1012 21.7307 87.1406 21.43 86.1726 21.43C85.7179 21.43 85.3659 21.5107 85.1166 21.672C84.8819 21.8187 84.7646 22.0313 84.7646 22.31C84.7646 22.53 84.8159 22.7133 84.9186 22.86C85.0359 22.992 85.2632 23.1313 85.6006 23.278C85.9379 23.4247 86.4586 23.6007 87.1626 23.806C88.3799 24.158 89.2819 24.62 89.8686 25.192C90.4699 25.7493 90.7706 26.5267 90.7706 27.524C90.7706 28.316 90.5432 29.0053 90.0886 29.592C89.6339 30.164 89.0106 30.604 88.2186 30.912C87.4266 31.22 86.5466 31.374 85.5786 31.374C84.5959 31.374 83.6792 31.22 82.8286 30.912C81.9926 30.604 81.2812 30.1787 80.6946 29.636L82.3886 27.744C83.3712 28.5067 84.4052 28.888 85.4906 28.888C86.0186 28.888 86.4292 28.7927 86.7226 28.602C87.0306 28.4113 87.1846 28.14 87.1846 27.788C87.1846 27.5093 87.1259 27.2893 87.0086 27.128C86.8912 26.9667 86.6639 26.82 86.3266 26.688C85.9892 26.5413 85.4539 26.3653 84.7206 26.16C83.5619 25.8227 82.6966 25.3533 82.1246 24.752C81.5526 24.1507 81.2666 23.4027 81.2666 22.508C81.2666 21.8333 81.4572 21.232 81.8386 20.704C82.2346 20.1613 82.7919 19.736 83.5106 19.428C84.2439 19.1053 85.0872 18.944 86.0406 18.944Z" fill="#103744"/>
<path d="M99.058 22.244C99.6007 22.244 100.063 22.442 100.444 22.838C100.84 23.2193 101.038 23.6813 101.038 24.224C101.038 24.7813 100.84 25.258 100.444 25.654C100.063 26.0353 99.6007 26.226 99.058 26.226C98.5007 26.226 98.024 26.0353 97.628 25.654C97.2467 25.258 97.056 24.7813 97.056 24.224C97.056 23.6813 97.2467 23.2193 97.628 22.838C98.024 22.442 98.5007 22.244 99.058 22.244Z" fill="#103744"/>
<path d="M113.26 15.38C114.404 15.38 115.394 15.5413 116.23 15.864C117.08 16.1867 117.85 16.678 118.54 17.338L116.868 19.296C115.826 18.4453 114.712 18.02 113.524 18.02C112.893 18.02 112.394 18.152 112.028 18.416C111.661 18.6653 111.478 19.032 111.478 19.516C111.478 19.8533 111.558 20.132 111.72 20.352C111.881 20.5573 112.167 20.7553 112.578 20.946C112.988 21.1367 113.604 21.364 114.426 21.628C115.98 22.1267 117.124 22.7427 117.858 23.476C118.591 24.1947 118.958 25.2213 118.958 26.556C118.958 27.5093 118.716 28.3527 118.232 29.086C117.748 29.8047 117.051 30.3693 116.142 30.78C115.232 31.176 114.154 31.374 112.908 31.374C111.661 31.374 110.554 31.176 109.586 30.78C108.632 30.384 107.811 29.856 107.122 29.196L108.948 27.194C109.534 27.6927 110.136 28.0667 110.752 28.316C111.382 28.5653 112.064 28.69 112.798 28.69C113.546 28.69 114.132 28.5287 114.558 28.206C114.998 27.8687 115.218 27.4067 115.218 26.82C115.218 26.4387 115.137 26.1233 114.976 25.874C114.814 25.61 114.536 25.3753 114.14 25.17C113.744 24.9647 113.172 24.7447 112.424 24.51C110.737 23.9967 109.534 23.366 108.816 22.618C108.112 21.87 107.76 20.924 107.76 19.78C107.76 18.9 107.994 18.13 108.464 17.47C108.933 16.7953 109.586 16.282 110.422 15.93C111.258 15.5633 112.204 15.38 113.26 15.38Z" fill="#20A0C9"/>
<path d="M127.72 18.944C128.732 18.944 129.524 19.252 130.096 19.868C130.668 20.484 130.954 21.3493 130.954 22.464V31H127.478V23.058C127.478 22.4713 127.382 22.068 127.192 21.848C127.001 21.6133 126.73 21.496 126.378 21.496C125.674 21.496 124.999 21.9947 124.354 22.992V31H120.878V14.676L124.354 14.324V20.572C124.838 20.0293 125.351 19.626 125.894 19.362C126.436 19.0833 127.045 18.944 127.72 18.944Z" fill="#20A0C9"/>
<path d="M142.859 27.612C142.859 28.052 142.918 28.3747 143.035 28.58C143.167 28.7853 143.372 28.9393 143.651 29.042L142.925 31.308C142.206 31.2493 141.62 31.0953 141.165 30.846C140.71 30.582 140.358 30.1713 140.109 29.614C139.346 30.7873 138.173 31.374 136.589 31.374C135.43 31.374 134.506 31.0367 133.817 30.362C133.128 29.6873 132.783 28.8073 132.783 27.722C132.783 26.446 133.252 25.4707 134.191 24.796C135.13 24.1213 136.486 23.784 138.261 23.784H139.449V23.278C139.449 22.5887 139.302 22.1193 139.009 21.87C138.716 21.606 138.202 21.474 137.469 21.474C137.088 21.474 136.626 21.5327 136.083 21.65C135.54 21.7527 134.983 21.8993 134.411 22.09L133.619 19.802C134.352 19.5233 135.1 19.3107 135.863 19.164C136.64 19.0173 137.359 18.944 138.019 18.944C139.691 18.944 140.916 19.2887 141.693 19.978C142.47 20.6673 142.859 21.7013 142.859 23.08V27.612ZM137.601 28.888C138.393 28.888 139.009 28.514 139.449 27.766V25.698H138.591C137.799 25.698 137.205 25.8373 136.809 26.116C136.428 26.3947 136.237 26.8273 136.237 27.414C136.237 27.8833 136.354 28.25 136.589 28.514C136.838 28.7633 137.176 28.888 137.601 28.888Z" fill="#20A0C9"/>
<path d="M151.964 18.988C152.389 18.988 152.778 19.0393 153.13 19.142L152.58 22.508C152.14 22.4053 151.788 22.354 151.524 22.354C150.834 22.354 150.306 22.596 149.94 23.08C149.588 23.5493 149.309 24.2607 149.104 25.214V31H145.628V19.318H148.664L148.95 21.584C149.214 20.7773 149.61 20.1467 150.138 19.692C150.68 19.2227 151.289 18.988 151.964 18.988Z" fill="#20A0C9"/>
<path d="M163.978 24.928C163.978 25.412 163.956 25.83 163.912 26.182H156.674C156.791 27.1647 157.07 27.854 157.51 28.25C157.95 28.646 158.558 28.844 159.336 28.844C159.805 28.844 160.26 28.7633 160.7 28.602C161.14 28.426 161.616 28.162 162.13 27.81L163.56 29.746C162.196 30.8313 160.678 31.374 159.006 31.374C157.114 31.374 155.662 30.8167 154.65 29.702C153.638 28.5873 153.132 27.0913 153.132 25.214C153.132 24.026 153.344 22.9627 153.77 22.024C154.195 21.0707 154.818 20.3227 155.64 19.78C156.461 19.2227 157.444 18.944 158.588 18.944C160.274 18.944 161.594 19.472 162.548 20.528C163.501 21.584 163.978 23.0507 163.978 24.928ZM160.568 23.938C160.538 22.1487 159.908 21.254 158.676 21.254C158.074 21.254 157.605 21.474 157.268 21.914C156.945 22.354 156.747 23.08 156.674 24.092H160.568V23.938Z" fill="#20A0C9"/>
<path d="M179.335 22.926C180.347 23.1167 181.168 23.4907 181.799 24.048C182.444 24.6053 182.767 25.4413 182.767 26.556C182.767 28.184 182.18 29.3353 181.007 30.01C179.848 30.67 178.22 31 176.123 31H171.217V15.754H175.529C177.67 15.754 179.306 16.062 180.435 16.678C181.564 17.2793 182.129 18.2693 182.129 19.648C182.129 20.5427 181.858 21.2687 181.315 21.826C180.787 22.3687 180.127 22.7353 179.335 22.926ZM174.825 18.306V21.848H176.167C177.692 21.848 178.455 21.232 178.455 20C178.455 19.384 178.25 18.9513 177.839 18.702C177.428 18.438 176.776 18.306 175.881 18.306H174.825ZM176.145 28.382C177.098 28.382 177.817 28.2427 178.301 27.964C178.8 27.6707 179.049 27.1353 179.049 26.358C179.049 24.95 178.169 24.246 176.409 24.246H174.825V28.382H176.145Z" fill="#20A0C9"/>
<path d="M194.585 31H191.571L191.417 29.526C190.567 30.758 189.386 31.374 187.875 31.374C186.805 31.374 185.991 31.0513 185.433 30.406C184.891 29.7607 184.619 28.8587 184.619 27.7V19.318H188.095V27.26C188.095 27.832 188.183 28.2353 188.359 28.47C188.55 28.69 188.836 28.8 189.217 28.8C189.951 28.8 190.581 28.3453 191.109 27.436V19.318H194.585V31Z" fill="#20A0C9"/>
<path d="M204.645 30.45C204.22 30.7433 203.721 30.9707 203.149 31.132C202.592 31.2933 202.034 31.374 201.477 31.374C198.925 31.3593 197.649 29.9513 197.649 27.15V21.738H195.999V19.318H197.649V16.788L201.125 16.392V19.318H203.809L203.435 21.738H201.125V27.106C201.125 27.6487 201.213 28.0373 201.389 28.272C201.565 28.5067 201.844 28.624 202.225 28.624C202.621 28.624 203.039 28.4993 203.479 28.25L204.645 30.45Z" fill="#20A0C9"/>
<path d="M213.131 30.45C212.706 30.7433 212.207 30.9707 211.635 31.132C211.078 31.2933 210.521 31.374 209.963 31.374C207.411 31.3593 206.135 29.9513 206.135 27.15V21.738H204.485V19.318H206.135V16.788L209.611 16.392V19.318H212.295L211.921 21.738H209.611V27.106C209.611 27.6487 209.699 28.0373 209.875 28.272C210.051 28.5067 210.33 28.624 210.711 28.624C211.107 28.624 211.525 28.4993 211.965 28.25L213.131 30.45Z" fill="#20A0C9"/>
<path d="M218.965 18.944C220.754 18.944 222.155 19.494 223.167 20.594C224.179 21.6793 224.685 23.2047 224.685 25.17C224.685 26.4167 224.45 27.5093 223.981 28.448C223.526 29.372 222.866 30.0907 222.001 30.604C221.15 31.1173 220.138 31.374 218.965 31.374C217.19 31.374 215.79 30.8313 214.763 29.746C213.751 28.646 213.245 27.1133 213.245 25.148C213.245 23.9013 213.472 22.816 213.927 21.892C214.396 20.9533 215.056 20.2273 215.907 19.714C216.772 19.2007 217.792 18.944 218.965 18.944ZM218.965 21.496C218.261 21.496 217.733 21.7967 217.381 22.398C217.029 22.9847 216.853 23.9013 216.853 25.148C216.853 26.424 217.022 27.3553 217.359 27.942C217.711 28.5287 218.246 28.822 218.965 28.822C219.669 28.822 220.197 28.5287 220.549 27.942C220.901 27.3407 221.077 26.4167 221.077 25.17C221.077 23.894 220.901 22.9627 220.549 22.376C220.212 21.7893 219.684 21.496 218.965 21.496Z" fill="#20A0C9"/>
<path d="M233.595 18.944C234.607 18.944 235.399 19.252 235.971 19.868C236.543 20.484 236.829 21.3493 236.829 22.464V31H233.353V23.058C233.353 22.4713 233.257 22.068 233.067 21.848C232.891 21.6133 232.619 21.496 232.253 21.496C231.549 21.496 230.874 22.002 230.229 23.014V31H226.753V19.318H229.789L230.031 20.704C230.529 20.1173 231.065 19.6773 231.637 19.384C232.223 19.0907 232.876 18.944 233.595 18.944Z" fill="#20A0C9"/>
<path d="M243.564 18.944C244.4 18.944 245.185 19.0687 245.918 19.318C246.651 19.5673 247.297 19.9193 247.854 20.374L246.578 22.332C245.625 21.7307 244.664 21.43 243.696 21.43C243.241 21.43 242.889 21.5107 242.64 21.672C242.405 21.8187 242.288 22.0313 242.288 22.31C242.288 22.53 242.339 22.7133 242.442 22.86C242.559 22.992 242.787 23.1313 243.124 23.278C243.461 23.4247 243.982 23.6007 244.686 23.806C245.903 24.158 246.805 24.62 247.392 25.192C247.993 25.7493 248.294 26.5267 248.294 27.524C248.294 28.316 248.067 29.0053 247.612 29.592C247.157 30.164 246.534 30.604 245.742 30.912C244.95 31.22 244.07 31.374 243.102 31.374C242.119 31.374 241.203 31.22 240.352 30.912C239.516 30.604 238.805 30.1787 238.218 29.636L239.912 27.744C240.895 28.5067 241.929 28.888 243.014 28.888C243.542 28.888 243.953 28.7927 244.246 28.602C244.554 28.4113 244.708 28.14 244.708 27.788C244.708 27.5093 244.649 27.2893 244.532 27.128C244.415 26.9667 244.187 26.82 243.85 26.688C243.513 26.5413 242.977 26.3653 242.244 26.16C241.085 25.8227 240.22 25.3533 239.648 24.752C239.076 24.1507 238.79 23.4027 238.79 22.508C238.79 21.8333 238.981 21.232 239.362 20.704C239.758 20.1613 240.315 19.736 241.034 19.428C241.767 19.1053 242.611 18.944 243.564 18.944Z" fill="#20A0C9"/>
</svg>
